name Run_400 01_newCOP3_v24.mot
datacolumns 19
datarows 10
range 4.25833300 4.26770800
endheader
                time	   R_ground_force_vx	   R_ground_force_vy	   R_ground_force_vz	   R_ground_force_px	   R_ground_force_py	   R_ground_force_pz	   L_ground_force_vx	   L_ground_force_vy	   L_ground_force_vz	   L_ground_force_px	   L_ground_force_py	   L_ground_force_pz	   R_ground_torque_x	   R_ground_torque_y	   R_ground_torque_z	   L_ground_torque_x	   L_ground_torque_y	   L_ground_torque_z	
          4.25833300	         16.46388100	         24.97404500	         -0.53908800	          0.84551900	          0.00000000	         -0.19940600	          0.00000000	          0.00000000	          0.00000000	          0.00000000	          0.00000000	          0.00000000	         -0.00000000	          0.03393500	         -0.00000000	          0.00000000	          0.00000000	          0.00000000	
          4.25937500	         14.67063200	         22.78936200	         -0.42886100	          0.86318400	          0.00000000	         -0.19171500	          0.00000000	          0.00000000	          0.00000000	          0.00000000	          0.00000000	          0.00000000	         -0.00000000	          0.03268100	         -0.00000000	          0.00000000	          0.00000000	          0.00000000	
          4.26041700	         13.03342100	         20.83169000	         -0.33133700	          0.88374800	          0.00000000	         -0.18343900	          0.00000000	          0.00000000	          0.00000000	          0.00000000	          0.00000000	          0.00000000	         -0.00000000	          0.02684500	         -0.00000000	          0.00000000	          0.00000000	          0.00000000	
          4.26145800	         11.54436500	         19.08241100	         -0.24776000	          0.90736800	          0.00000000	         -0.17459400	          0.00000000	          0.00000000	          0.00000000	          0.00000000	          0.00000000	          0.00000000	         -0.00000000	          0.01661600	         -0.00000000	          0.00000000	          0.00000000	          0.00000000	
          4.26250000	         10.19536100	         17.52338600	         -0.17891900	          0.93410800	          0.00000000	         -0.16521300	          0.00000000	          0.00000000	          0.00000000	          0.00000000	          0.00000000	          0.00000000	         -0.00000000	          0.00219200	         -0.00000000	          0.00000000	          0.00000000	          0.00000000	
          4.26354200	          8.97820600	         16.13704500	         -0.12516400	          0.96391000	          0.00000000	         -0.15534400	          0.00000000	          0.00000000	          0.00000000	          0.00000000	          0.00000000	          0.00000000	          0.00000000	         -0.01622000	          0.00000000	          0.00000000	          0.00000000	          0.00000000	
          4.26458300	          7.88468300	         14.90647600	         -0.08642400	          0.99657300	          0.00000000	         -0.14505800	          0.00000000	          0.00000000	          0.00000000	          0.00000000	          0.00000000	          0.00000000	          0.00000000	         -0.03840600	          0.00000000	          0.00000000	          0.00000000	          0.00000000	
          4.26562500	          6.90661900	         13.81550400	         -0.06223700	          1.03174200	          0.00000000	         -0.13443800	          0.00000000	          0.00000000	          0.00000000	          0.00000000	          0.00000000	          0.00000000	          0.00000000	         -0.06414500	          0.00000000	          0.00000000	          0.00000000	          0.00000000	
          4.26666700	          6.03590100	         12.84876800	         -0.05178600	          1.06890500	          0.00000000	         -0.12358600	          0.00000000	          0.00000000	          0.00000000	          0.00000000	          0.00000000	          0.00000000	          0.00000000	         -0.09321000	          0.00000000	          0.00000000	          0.00000000	          0.00000000	
          4.26770800	          5.26449300	         11.99179400	         -0.05394100	          1.10741200	          0.00000000	         -0.11261400	          0.00000000	          0.00000000	          0.00000000	          0.00000000	          0.00000000	          0.00000000	          0.00000000	         -0.12536800	          0.00000000	          0.00000000	          0.00000000	          0.00000000	
